<svg width="508.53754882812495px" height="121.40498046875px" xmlns="http://www.w3.org/2000/svg" viewBox="-4.268774414062477 14.297509765625001 508.53754882812495 121.40498046875" style="background:#e00" preserveAspectRatio="xMidYMid"><defs><filter id="editing-lego" x="-100%" y="-100%" width="300%" height="300%"><feFlood flood-color="#000" result="f1"></feFlood><feFlood flood-color="#ff0" result="f2"></feFlood><feMorphology operator="dilate" radius="3" in="SourceAlpha"></feMorphology><feConvolveMatrix order="5,5" divisor="1" result="cm1" kernelMatrix="0 1 1 1 0  1 0 0 0 1  1 0 0 0 1  1 0 0 0 1  0 1 1 1 0"></feConvolveMatrix><feComposite operator="in" in="f1" in2="cm1" result="c1"></feComposite><feMorphology operator="dilate" radius="3"></feMorphology><feConvolveMatrix order="5,5" divisor="1" result="cm2" kernelMatrix="0 1 1 1 0  1 0 0 0 1  1 0 0 0 1  1 0 0 0 1  0 1 1 1 0"></feConvolveMatrix><feComposite operator="in" in="f2" in2="cm2" result="c2"></feComposite><feMerge><feMergeNode in="c2"></feMergeNode><feMergeNode in="c1"></feMergeNode><feMergeNode in="SourceGraphic"></feMergeNode></feMerge></filter></defs><g filter="url(#editing-lego)"><g transform="translate(71.75999081134796, 104.76000022888184)"><path d="M16.45-3.52L16.45-3.52L16.45-3.52Q14.46 1.28 8.13 1.28L8.13 1.28L8.13 1.28Q4.86 1.28 2.82-0.96L2.82-0.96L2.82-0.96Q1.09-2.94 1.09-4.93L1.09-4.93L1.09-4.93Q1.09-10.11 3.46-20.22L3.46-20.22L5.82-32.64L18.82-33.92L14.91-13.70L14.91-13.70Q13.82-8.96 13.82-7.30L13.82-7.30L13.82-7.30Q13.82-3.65 16.45-3.52ZM6.98-41.54L6.98-41.54L6.98-41.54Q6.98-44.03 9.06-45.38L9.06-45.38L9.06-45.38Q11.14-46.72 14.14-46.72L14.14-46.72L14.14-46.72Q17.15-46.72 18.98-45.38L18.98-45.38L18.98-45.38Q20.80-44.03 20.80-41.54L20.80-41.54L20.80-41.54Q20.80-39.04 18.78-37.76L18.78-37.76L18.78-37.76Q16.77-36.48 13.76-36.48L13.76-36.48L13.76-36.48Q10.75-36.48 8.86-37.76L8.86-37.76L8.86-37.76Q6.98-39.04 6.98-41.54ZM48.96 1.28L48.96 1.28L48.96 1.28Q41.22 1.28 41.22-4.74L41.22-4.74L41.22-4.74Q41.28-6.40 41.79-9.22L41.79-9.22L42.94-15.10L42.94-15.10Q44.67-23.42 44.67-25.28L44.67-25.28L44.67-25.28Q44.67-28.99 42.50-28.99L42.50-28.99L42.50-28.99Q38.85-28.99 36.93-19.46L36.93-19.46L33.15 0L20.29 1.28L26.94-32.70L37.44-33.92L36.42-27.65L36.42-27.65Q39.42-33.92 48.64-33.92L48.64-33.92L48.64-33.92Q53.12-33.92 55.01-32.03L55.01-32.03L55.01-32.03Q56.90-30.14 56.90-25.92L56.90-25.92L56.90-25.92Q56.90-21.95 54.85-12.67L54.85-12.67L54.85-12.67Q53.89-8.51 53.89-6.94L53.89-6.94L53.89-6.94Q53.89-5.38 54.75-4.48L54.75-4.48L54.75-4.48Q55.62-3.58 56.90-3.46L56.90-3.46L56.90-3.46Q56.26-1.28 54.05 0L54.05 0L54.05 0Q51.84 1.28 48.96 1.28ZM93.44-26.62L93.44-26.62L93.44-26.62Q93.44-23.94 91.20-22.27L91.20-22.27L91.20-22.27Q88.96-20.61 85.31-20.61L85.31-20.61L85.31-20.61Q83.78-20.61 82.88-21.06L82.88-21.06L82.88-21.06Q83.58-22.72 83.81-24.80L83.81-24.80L83.81-24.80Q84.03-26.88 84.03-27.46L84.03-27.46L84.03-27.46Q84.03-30.14 82.18-30.14L82.18-30.14L82.18-30.14Q80.90-30.14 79.46-28.54L79.46-28.54L79.46-28.54Q78.02-26.94 76.80-24.45L76.80-24.45L76.80-24.45Q74.11-18.69 74.11-12.86L74.11-12.86L74.11-12.86Q74.11-9.66 75.33-8.22L75.33-8.22L75.33-8.22Q76.54-6.78 79.23-6.78L79.23-6.78L79.23-6.78Q82.94-6.78 85.89-9.86L85.89-9.86L85.89-9.86Q86.72-10.82 87.17-11.90L87.17-11.90L87.17-11.90Q89.60-10.62 89.60-7.10L89.60-7.10L89.60-7.10Q89.60-3.52 85.63-1.15L85.63-1.15L85.63-1.15Q81.54 1.28 75.01 1.28L75.01 1.28L75.01 1.28Q62.02 1.28 62.02-12.48L62.02-12.48L62.02-12.48Q62.02-22.53 67.71-28.29L67.71-28.29L67.71-28.29Q73.22-33.92 83.33-33.92L83.33-33.92L83.33-33.92Q93.44-33.92 93.44-26.62ZM97.95-1.92L97.95-1.92L97.95-1.92Q96.45-3.58 95.78-6.21L95.78-6.21L95.78-6.21Q95.10-8.83 95.10-13.12L95.10-13.12L95.10-13.12Q95.10-17.41 96.58-21.31L96.58-21.31L96.58-21.31Q98.05-25.22 100.74-28.03L100.74-28.03L100.74-28.03Q106.24-33.92 115.33-33.92L115.33-33.92L115.33-33.92Q118.59-33.92 120.96-32.83L120.96-32.83L131.90-33.92L127.17-8.96L127.17-8.96Q126.98-8.19 126.98-6.78L126.98-6.78L126.98-6.78Q126.98-5.38 127.84-4.48L127.84-4.48L127.84-4.48Q128.70-3.58 129.98-3.46L129.98-3.46L129.98-3.46Q129.34-1.28 127.01 0L127.01 0L127.01 0Q124.67 1.28 122.05 1.28L122.05 1.28L122.05 1.28Q119.42 1.28 117.66 0.29L117.66 0.29L117.66 0.29Q115.90-0.70 115.39-2.37L115.39-2.37L115.39-2.37Q114.37-0.77 112.19 0.26L112.19 0.26L112.19 0.26Q110.02 1.28 107.10 1.28L107.10 1.28L107.10 1.28Q104.19 1.28 101.82 0.51L101.82 0.51L101.82 0.51Q99.46-0.26 97.95-1.92ZM111.46-27.90L111.46-27.90L111.46-27.90Q110.72-26.75 110.08-24.80L110.08-24.80L110.08-24.80Q109.44-22.85 108.38-17.63L108.38-17.63L108.38-17.63Q107.33-12.42 107.33-8.70L107.33-8.70L107.33-8.70Q107.33-4.99 107.90-3.90L107.90-3.90L107.90-3.90Q108.48-2.82 109.50-2.82L109.50-2.82L109.50-2.82Q111.55-2.82 113.06-4.77L113.06-4.77L113.06-4.77Q114.56-6.72 115.14-10.18L115.14-10.18L118.53-28.93L118.53-28.93Q117.18-30.08 115.62-30.08L115.62-30.08L115.62-30.08Q114.05-30.08 113.12-29.57L113.12-29.57L113.12-29.57Q112.19-29.06 111.46-27.90ZM155.39-17.98L155.39-17.98L155.39-17.98Q157.70-22.08 157.70-26.24L157.70-26.24L157.70-26.24Q157.70-28.99 155.71-28.99L155.71-28.99L155.71-28.99Q154.18-28.99 152.58-26.37L152.58-26.37L152.58-26.37Q150.91-23.74 150.40-20.35L150.40-20.35L147.07 0L133.82 1.28L140.35-32.64L150.91-33.92L149.76-27.46L149.76-27.46Q152.90-33.92 159.94-33.92L159.94-33.92L159.94-33.92Q163.65-33.92 165.66-32L165.66-32L165.66-32Q167.68-30.08 167.68-26.14L167.68-26.14L167.68-26.14Q167.68-22.21 165.09-19.71L165.09-19.71L165.09-19.71Q162.50-17.22 158.08-17.22L158.08-17.22L158.08-17.22Q156.16-17.22 155.39-17.98ZM184.06-3.52L184.06-3.52L184.06-3.52Q182.08 1.28 175.74 1.28L175.74 1.28L175.74 1.28Q172.48 1.28 170.43-0.96L170.43-0.96L170.43-0.96Q168.70-2.94 168.70-4.93L168.70-4.93L168.70-4.93Q168.70-10.11 171.07-20.22L171.07-20.22L173.44-32.64L186.43-33.92L182.53-13.70L182.53-13.70Q181.44-8.96 181.44-7.30L181.44-7.30L181.44-7.30Q181.44-3.65 184.06-3.52ZM174.59-41.54L174.59-41.54L174.59-41.54Q174.59-44.03 176.67-45.38L176.67-45.38L176.67-45.38Q178.75-46.72 181.76-46.72L181.76-46.72L181.76-46.72Q184.77-46.72 186.59-45.38L186.59-45.38L186.59-45.38Q188.42-44.03 188.42-41.54L188.42-41.54L188.42-41.54Q188.42-39.04 186.40-37.76L186.40-37.76L186.40-37.76Q184.38-36.48 181.38-36.48L181.38-36.48L181.38-36.48Q178.37-36.48 176.48-37.76L176.48-37.76L176.48-37.76Q174.59-39.04 174.59-41.54ZM194.05-26.75L194.05-26.75L194.05-26.75Q196.22-29.82 199.52-31.87L199.52-31.87L199.52-31.87Q202.82-33.92 206.85-33.92L206.85-33.92L206.85-33.92Q210.88-33.92 212.80-32.64L212.80-32.64L225.34-33.92L220.99-9.34L220.99-9.34Q218.75 3.20 214.02 8.13L214.02 8.13L214.02 8.13Q209.47 12.80 200.64 12.80L200.64 12.80L200.64 12.80Q193.92 12.80 190.08 10.69L190.08 10.69L190.08 10.69Q186.24 8.58 186.24 5.06L186.24 5.06L186.24 5.06Q186.24 2.43 188.22 0.93L188.22 0.93L188.22 0.93Q190.21-0.58 193.28-0.58L193.28-0.58L193.28-0.58Q195.97-0.58 198.02 0.64L198.02 0.64L198.02 0.64Q199.23 1.28 199.81 2.18L199.81 2.18L199.81 2.18Q198.34 3.46 198.34 5.57L198.34 5.57L198.34 5.57Q198.34 8.32 200.90 8.32L200.90 8.32L200.90 8.32Q205.18 8.32 207.62-1.79L207.62-1.79L207.62-1.79Q208.32-4.54 208.90-7.30L208.90-7.30L208.90-7.30Q206.02-3.78 199.49-3.78L199.49-3.78L199.49-3.78Q194.94-3.78 192.32-5.95L192.32-5.95L192.32-5.95Q189.70-8.13 189.70-13.25L189.70-13.25L189.70-13.25Q189.70-16.45 190.78-20.06L190.78-20.06L190.78-20.06Q191.87-23.68 194.05-26.75ZM202.37-13.06L202.37-13.06L202.37-13.06Q202.37-8.70 204.61-8.70L204.61-8.70L204.61-8.70Q206.14-8.70 207.62-10.37L207.62-10.37L207.62-10.37Q208.77-11.71 209.22-13.70L209.22-13.70L212.48-30.14L212.48-30.14Q212.16-30.21 211.84-30.34L211.84-30.34L211.84-30.34Q211.20-30.59 210.37-30.59L210.37-30.59L210.37-30.59Q206.46-30.59 204.16-24.19L204.16-24.19L204.16-24.19Q202.37-19.20 202.37-13.06ZM247.87-17.98L247.87-17.98L247.87-17.98Q250.18-22.08 250.18-26.24L250.18-26.24L250.18-26.24Q250.18-28.99 248.19-28.99L248.19-28.99L248.19-28.99Q246.66-28.99 245.06-26.37L245.06-26.37L245.06-26.37Q243.39-23.74 242.88-20.35L242.88-20.35L239.55 0L226.30 1.28L232.83-32.64L243.39-33.92L242.24-27.46L242.24-27.46Q245.38-33.92 252.42-33.92L252.42-33.92L252.42-33.92Q256.13-33.92 258.14-32L258.14-32L258.14-32Q260.16-30.08 260.16-26.14L260.16-26.14L260.16-26.14Q260.16-22.21 257.57-19.71L257.57-19.71L257.57-19.71Q254.98-17.22 250.56-17.22L250.56-17.22L250.56-17.22Q248.64-17.22 247.87-17.98ZM263.97-1.92L263.97-1.92L263.97-1.92Q262.46-3.58 261.79-6.21L261.79-6.21L261.79-6.21Q261.12-8.83 261.12-13.12L261.12-13.12L261.12-13.12Q261.12-17.41 262.59-21.31L262.59-21.31L262.59-21.31Q264.06-25.22 266.75-28.03L266.75-28.03L266.75-28.03Q272.26-33.92 281.34-33.92L281.34-33.92L281.34-33.92Q284.61-33.92 286.98-32.83L286.98-32.83L297.92-33.92L293.18-8.96L293.18-8.96Q292.99-8.19 292.99-6.78L292.99-6.78L292.99-6.78Q292.99-5.38 293.86-4.48L293.86-4.48L293.86-4.48Q294.72-3.58 296-3.46L296-3.46L296-3.46Q295.36-1.28 293.02 0L293.02 0L293.02 0Q290.69 1.28 288.06 1.28L288.06 1.28L288.06 1.28Q285.44 1.28 283.68 0.29L283.68 0.29L283.68 0.29Q281.92-0.70 281.41-2.37L281.41-2.37L281.41-2.37Q280.38-0.77 278.21 0.26L278.21 0.26L278.21 0.26Q276.03 1.28 273.12 1.28L273.12 1.28L273.12 1.28Q270.21 1.28 267.84 0.51L267.84 0.51L267.84 0.51Q265.47-0.26 263.97-1.92ZM277.47-27.90L277.47-27.90L277.47-27.90Q276.74-26.75 276.10-24.80L276.10-24.80L276.10-24.80Q275.46-22.85 274.40-17.63L274.40-17.63L274.40-17.63Q273.34-12.42 273.34-8.70L273.34-8.70L273.34-8.70Q273.34-4.99 273.92-3.90L273.92-3.90L273.92-3.90Q274.50-2.82 275.52-2.82L275.52-2.82L275.52-2.82Q277.57-2.82 279.07-4.77L279.07-4.77L279.07-4.77Q280.58-6.72 281.15-10.18L281.15-10.18L284.54-28.93L284.54-28.93Q283.20-30.08 281.63-30.08L281.63-30.08L281.63-30.08Q280.06-30.08 279.14-29.57L279.14-29.57L279.14-29.57Q278.21-29.06 277.47-27.90ZM347.46 1.28L347.46 1.28L347.46 1.28Q339.71 1.28 339.71-4.74L339.71-4.74L339.71-4.74Q339.71-7.36 340.83-12.45L340.83-12.45L340.83-12.45Q341.95-17.54 342.34-19.58L342.34-19.58L342.34-19.58Q343.23-24.26 343.23-25.73L343.23-25.73L343.23-25.73Q343.23-28.99 340.80-28.99L340.80-28.99L340.80-28.99Q339.20-28.99 337.66-26.78L337.66-26.78L337.66-26.78Q336.13-24.58 335.42-20.16L335.42-20.16L331.46 0L318.98 1.28L322.43-16.13L322.43-16.13Q323.01-19.01 323.52-22.27L323.52-22.27L323.52-22.27Q324.03-25.54 324.03-26.05L324.03-26.05L324.03-26.05Q324.03-28.99 321.86-28.99L321.86-28.99L321.86-28.99Q320.38-28.99 318.78-26.82L318.78-26.82L318.78-26.82Q317.18-24.64 316.29-20.16L316.29-20.16L312.38 0L299.78 1.28L306.50-32.64L316.93-33.92L315.84-27.46L315.84-27.46Q317.50-30.91 320.58-32.42L320.58-32.42L320.58-32.42Q323.65-33.92 328.45-33.92L328.45-33.92L328.45-33.92Q331.20-33.92 332.99-32.58L332.99-32.58L332.99-32.58Q334.78-31.23 335.36-29.06L335.36-29.06L335.36-29.06Q336.45-31.30 339.23-32.61L339.23-32.61L339.23-32.61Q342.02-33.92 345.44-33.92L345.44-33.92L345.44-33.92Q348.86-33.92 350.56-33.18L350.56-33.18L350.56-33.18Q352.26-32.45 353.28-31.23L353.28-31.23L353.28-31.23Q355.01-28.99 355.01-24.90L355.01-24.90L355.01-24.90Q355.01-20.86 353.28-12.48L353.28-12.48L353.28-12.48Q352.38-8.38 352.38-6.88L352.38-6.88L352.38-6.88Q352.38-5.38 353.25-4.48L353.25-4.48L353.25-4.48Q354.11-3.58 355.39-3.46L355.39-3.46L355.39-3.46Q354.75-1.28 352.54 0L352.54 0L352.54 0Q350.34 1.28 347.46 1.28Z" fill="#fff"></path></g></g><style>text {
  font-size: 64px;
  font-family: Arial Black;
  dominant-baseline: central;
  text-anchor: middle;
}</style></svg>